<svg xmlns="http://www.w3.org/2000/svg" viewBox="0 0 500 500"><g id="freepik--Screens--inject-14"><rect x="336.25" y="140.65" width="111.53" height="91.74" rx="2.29" style="fill:#407BFF"></rect><path d="M447.78,142.94V230.1a2.29,2.29,0,0,1-2.29,2.29H338.54a2.29,2.29,0,0,1-2.29-2.29V142.94a2.3,2.3,0,0,1,2.29-2.29h107A2.3,2.3,0,0,1,447.78,142.94Z" style="fill:#fff;opacity:0.6000000000000001;isolation:isolate"></path><rect x="338.62" y="149.98" width="106.78" height="79.84" style="fill:#263238"></rect><path d="M347.31,159.93a.75.75,0,0,0,.45.14.73.73,0,0,0,.6-.3.74.74,0,0,0-.16-1.05L346,157.09l2.21-1.63a.75.75,0,1,0-.89-1.21l-3,2.24a.76.76,0,0,0,0,1.21Z" style="fill:#fff;opacity:0.5"></path><path d="M357.47,157.08l-2.21,1.64a.73.73,0,0,0-.16,1,.75.75,0,0,0,.6.31.76.76,0,0,0,.45-.15l3-2.24a.74.74,0,0,0,0-1.2l-3-2.23a.75.75,0,1,0-.89,1.2Z" style="fill:#fff;opacity:0.5"></path><path d="M350.69,160a.69.69,0,0,0,.25,0,.73.73,0,0,0,.7-.5l1.59-4.47a.75.75,0,1,0-1.42-.5l-1.58,4.47A.75.75,0,0,0,350.69,160Z" style="fill:#fff;opacity:0.5"></path><path d="M363.2,160.32h3.95a1,1,0,0,0,0-2H363.2a1,1,0,0,0,0,2Z" style="fill:#fff;opacity:0.5"></path><path d="M427.25,216.89H365.38a1,1,0,0,0,0,2h61.87a1,1,0,0,0,0-2Z" style="fill:#fff;opacity:0.5"></path><path d="M440.84,216.89h-7.65a1,1,0,1,0,0,2h7.65a1,1,0,1,0,0-2Z" style="fill:#fff"></path><path d="M384,212.56h24.91a1,1,0,0,0,0-2H384a1,1,0,0,0,0,2Z" style="fill:#fff"></path><path d="M427.25,212.56a1,1,0,0,0,0-2H413.12a1,1,0,0,0,0,2Z" style="fill:#fff;opacity:0.5"></path><path d="M440.84,210.56h-7.51a1,1,0,0,0,0,2h7.51a1,1,0,0,0,0-2Z" style="fill:#fff;opacity:0.5"></path><path d="M427.35,204.23H394a1,1,0,0,0,0,2h33.32a1,1,0,0,0,0-2Z" style="fill:#fff"></path><path d="M440.84,204.23h-7.6a1,1,0,0,0,0,2h7.6a1,1,0,0,0,0-2Z" style="fill:#fff"></path><path d="M409,198.9a1,1,0,0,0-1-1H374a1,1,0,0,0,0,2h34A1,1,0,0,0,409,198.9Z" style="fill:#fff;opacity:0.5"></path><path d="M414.16,197.9a1,1,0,0,0,0,2h13.18a1,1,0,0,0,0-2Z" style="fill:#fff;opacity:0.5"></path><path d="M440.84,197.9h-7.51a1,1,0,0,0,0,2h7.51a1,1,0,0,0,0-2Z" style="fill:#fff"></path><path d="M416,193.57h6.54a1,1,0,0,0,0-2H416a1,1,0,0,0,0,2Z" style="fill:#fff"></path><path d="M427.22,193.57h13.62a1,1,0,0,0,0-2H427.22a1,1,0,0,0,0,2Z" style="fill:#fff;opacity:0.5"></path><path d="M379.35,186.24a1,1,0,0,0-1-1H344a1,1,0,0,0,0,2h34.32A1,1,0,0,0,379.35,186.24Z" style="fill:#fff"></path><path d="M383.75,187.24h10.09a1,1,0,0,0,0-2H383.75a1,1,0,0,0,0,2Z" style="fill:#fff;opacity:0.5"></path><path d="M344,180.91h13a1,1,0,0,0,0-2H344a1,1,0,0,0,0,2Z" style="fill:#fff;opacity:0.5"></path><path d="M404.84,179.91a1,1,0,0,0-1-1H363.48a1,1,0,0,0,0,2h40.36A1,1,0,0,0,404.84,179.91Z" style="fill:#fff"></path><path d="M344,174.58h23.55a1,1,0,0,0,0-2H344a1,1,0,0,0,0,2Z" style="fill:#fff"></path><path d="M372,173.58a1,1,0,0,0,1,1h5.83a1,1,0,0,0,0-2H373A1,1,0,0,0,372,173.58Z" style="fill:#fff;opacity:0.5"></path><path d="M344,168.25h27.81a1,1,0,0,0,0-2H344a1,1,0,0,0,0,2Z" style="fill:#fff;opacity:0.5"></path><path d="M392.51,168.25h21.33a1,1,0,0,0,0-2H392.51a1,1,0,0,0,0,2Z" style="fill:#fff"></path><path d="M400.14,140.65v24.86a5,5,0,0,1-5,5H336.25V142.94a2.3,2.3,0,0,1,2.29-2.29Z" style="opacity:0.2;isolation:isolate"></path><rect x="269.33" y="70.87" width="125.53" height="91.74" rx="2.29" style="fill:#407BFF"></rect><path d="M394.86,73.16v87.16a2.29,2.29,0,0,1-2.29,2.29H271.62a2.28,2.28,0,0,1-2.29-2.29V73.16a2.29,2.29,0,0,1,2.29-2.29h121A2.3,2.3,0,0,1,394.86,73.16Z" style="fill:#fff;opacity:0.6000000000000001;isolation:isolate"></path><rect x="271.7" y="80.2" width="120.78" height="79.84" style="fill:#263238"></rect><path d="M280.39,90.15a.75.75,0,0,0,.45.14.75.75,0,0,0,.44-1.35l-2.21-1.63,2.21-1.63a.75.75,0,0,0-.89-1.21l-3,2.24a.76.76,0,0,0,0,1.21Z" style="fill:#fff"></path><path d="M290.54,87.3l-2.2,1.64a.73.73,0,0,0-.16,1,.75.75,0,0,0,.6.31.76.76,0,0,0,.45-.15l3-2.24a.72.72,0,0,0,.31-.6.75.75,0,0,0-.31-.6l-3-2.23a.75.75,0,1,0-.89,1.2Z" style="fill:#fff"></path><path d="M283.77,90.25a.69.69,0,0,0,.25,0,.74.74,0,0,0,.7-.5l1.58-4.47a.73.73,0,0,0-.45-.95.75.75,0,0,0-1,.45l-1.58,4.47A.75.75,0,0,0,283.77,90.25Z" style="fill:#fff"></path><path d="M296.27,90.54h4a1,1,0,0,0,0-2h-4a1,1,0,0,0,0,2Z" style="fill:#fff;opacity:0.5"></path><path d="M347.58,98.47h5.34a1,1,0,0,0,0-2h-5.34a1,1,0,0,0,0,2Z" style="fill:#fff;opacity:0.5"></path><path d="M289.7,97.47a1,1,0,0,0,1,1h50a1,1,0,0,0,0-2h-50A1,1,0,0,0,289.7,97.47Z" style="fill:#fff"></path><path d="M277.11,98.47h7.65a1,1,0,0,0,0-2h-7.65a1,1,0,0,0,0,2Z" style="fill:#fff;opacity:0.5"></path><path d="M328.92,104.8a1,1,0,0,0,0-2H309a1,1,0,0,0,0,2Z" style="fill:#fff"></path><path d="M290.7,104.8h14.13a1,1,0,0,0,0-2H290.7a1,1,0,0,0,0,2Z" style="fill:#fff"></path><path d="M277.11,104.8h7.52a1,1,0,0,0,0-2h-7.52a1,1,0,0,0,0,2Z" style="fill:#fff;opacity:0.5"></path><path d="M319.92,110.13a1,1,0,0,0-1-1H290.6a1,1,0,0,0,0,2h28.32A1,1,0,0,0,319.92,110.13Z" style="fill:#fff"></path><path d="M277.11,111.13h7.6a1,1,0,0,0,0-2h-7.6a1,1,0,0,0,0,2Z" style="fill:#fff;opacity:0.5"></path><path d="M310,117.46h29a1,1,0,0,0,0-2H310a1,1,0,0,0,0,2Z" style="fill:#fff"></path><path d="M290.62,115.46a1,1,0,0,0,0,2h13.17a1,1,0,0,0,0-2Z" style="fill:#fff"></path><path d="M277.11,117.46h7.51a1,1,0,0,0,0-2h-7.51a1,1,0,0,0,0,2Z" style="fill:#fff;opacity:0.5"></path><path d="M301.92,121.79h-6.53a1,1,0,0,0,0,2h6.53a1,1,0,0,0,0-2Z" style="fill:#fff"></path><path d="M290.73,121.79H277.11a1,1,0,0,0,0,2h13.62a1,1,0,0,0,0-2Z" style="fill:#fff"></path><path d="M333.6,129.12a1,1,0,0,0,1,1h53.32a1,1,0,0,0,0-2H334.6A1,1,0,0,0,333.6,129.12Z" style="fill:#fff"></path><path d="M319.11,128.12a1,1,0,0,0,0,2H329.2a1,1,0,0,0,0-2Z" style="fill:#fff;opacity:0.5"></path><path d="M387.92,134.45h-13a1,1,0,0,0,0,2h13a1,1,0,0,0,0-2Z" style="fill:#fff;opacity:0.5"></path><path d="M369.48,135.45a1,1,0,0,0-1-1H314.11a1,1,0,0,0,0,2h54.37A1,1,0,0,0,369.48,135.45Z" style="fill:#fff"></path><path d="M387.92,140.78H364.37a1,1,0,0,0,0,2h23.55a1,1,0,0,0,0-2Z" style="fill:#fff"></path><path d="M353.11,140.78a1,1,0,0,0,0,2H359a1,1,0,0,0,0-2Z" style="fill:#fff;opacity:0.5"></path><path d="M387.92,147.11H341.11a1,1,0,0,0,0,2h46.81a1,1,0,0,0,0-2Z" style="fill:#fff"></path><path d="M320.45,147.11H304.11a1,1,0,0,0,0,2h16.34a1,1,0,0,0,0-2Z" style="fill:#fff"></path><path d="M336.25,110.35v52.26H271.62a2.28,2.28,0,0,1-2.29-2.29V105.9H331.8A4.45,4.45,0,0,1,336.25,110.35Z" style="opacity:0.2;isolation:isolate"></path><rect x="183.47" y="109.77" width="144.53" height="91.74" rx="2.29" style="fill:#407BFF"></rect><rect x="183.47" y="109.77" width="144.53" height="91.74" rx="2.29" style="fill:#fff;opacity:0.6000000000000001;isolation:isolate"></rect><rect x="185.85" y="119.09" width="139.78" height="79.84" style="fill:#263238"></rect><path d="M213.62,135.85H191.25a1,1,0,0,0,0,2h22.37a1,1,0,0,0,0-2Z" style="fill:#fff"></path><path d="M213.62,142.09H194.25a1,1,0,0,0,0,2h19.37a1,1,0,0,0,0-2Z" style="fill:#fff"></path><path d="M213.62,148.33H191.25a1,1,0,0,0,0,2h22.37a1,1,0,0,0,0-2Z" style="fill:#fff;opacity:0.5"></path><path d="M213.62,154.57H200.25a1,1,0,0,0,0,2h13.37a1,1,0,0,0,0-2Z" style="fill:#fff"></path><path d="M213.62,160.81H191.25a1,1,0,0,0,0,2h22.37a1,1,0,0,0,0-2Z" style="fill:#fff"></path><path d="M213.62,167.05H195.25a1,1,0,0,0,0,2h18.37a1,1,0,0,0,0-2Z" style="fill:#fff"></path><path d="M213.62,173.29H195.25a1,1,0,0,0,0,2h18.37a1,1,0,0,0,0-2Z" style="fill:#fff"></path><path d="M213.62,179.53H193.25a1,1,0,0,0,0,2h20.37a1,1,0,0,0,0-2Z" style="fill:#fff"></path><path d="M213.62,185.77H200.25a1,1,0,0,0,0,2h13.37a1,1,0,0,0,0-2Z" style="fill:#fff;opacity:0.5"></path><path d="M213.62,129.61H197.25a1,1,0,0,0,0,2h16.37a1,1,0,0,0,0-2Z" style="fill:#fff;opacity:0.5"></path><path d="M213.62,123.37H191.25a1,1,0,0,0,0,2h22.37a1,1,0,0,0,0-2Z" style="fill:#fff"></path><path d="M213.62,192H191.25a1,1,0,0,0,0,2h22.37a1,1,0,0,0,0-2Z" style="fill:#fff"></path><rect x="221.25" y="135.6" width="4.37" height="2.5" style="fill:#fff;opacity:0.5"></rect><rect x="221.25" y="141.84" width="4.37" height="2.5" style="fill:#fff;opacity:0.5"></rect><rect x="221.25" y="148.08" width="4.37" height="2.5" style="fill:#fff;opacity:0.5"></rect><rect x="221.25" y="154.32" width="4.37" height="2.5" style="fill:#fff;opacity:0.5"></rect><rect x="221.25" y="160.56" width="4.37" height="2.5" style="fill:#fff;opacity:0.5"></rect><rect x="221.25" y="166.8" width="4.37" height="2.5" style="fill:#fff;opacity:0.5"></rect><rect x="221.25" y="173.04" width="4.37" height="2.5" style="fill:#fff;opacity:0.5"></rect><rect x="221.25" y="179.28" width="4.37" height="2.5" style="fill:#fff;opacity:0.5"></rect><rect x="221.25" y="185.52" width="4.37" height="2.5" style="fill:#fff;opacity:0.5"></rect><rect x="221.25" y="129.36" width="4.37" height="2.5" style="fill:#fff;opacity:0.5"></rect><rect x="221.25" y="123.12" width="4.37" height="2.5" style="fill:#fff;opacity:0.5"></rect><rect x="221.25" y="191.76" width="4.37" height="2.5" style="fill:#fff;opacity:0.5"></rect><path d="M248.25,136.85a1,1,0,0,0,1,1h72.37a1,1,0,0,0,0-2H249.25A1,1,0,0,0,248.25,136.85Z" style="fill:#fff"></path><path d="M321.62,142.09H282a1,1,0,0,0,0,2h39.63a1,1,0,0,0,0-2Z" style="fill:#fff"></path><path d="M272.58,142.09H260.25a1,1,0,0,0,0,2h12.33a1,1,0,0,0,0-2Z" style="fill:#fff;opacity:0.5"></path><path d="M297.62,148.33h-55a1,1,0,0,0,0,2h55a1,1,0,0,0,0-2Z" style="fill:#fff"></path><path d="M231.25,150.33h3.9a1,1,0,0,0,0-2h-3.9a1,1,0,0,0,0,2Z" style="fill:#fff;opacity:0.5"></path><path d="M304.62,155.57a1,1,0,0,0-1-1h-51a1,1,0,0,0,0,2h51A1,1,0,0,0,304.62,155.57Z" style="fill:#fff"></path><path d="M231.25,156.57h14.39a1,1,0,0,0,0-2H231.25a1,1,0,0,0,0,2Z" style="fill:#fff"></path><path d="M231.25,162.81h54.37a1,1,0,0,0,0-2H231.25a1,1,0,0,0,0,2Z" style="fill:#fff"></path><path d="M266.42,167.05a1,1,0,0,0,0,2h28.2a1,1,0,0,0,0-2Z" style="fill:#fff"></path><path d="M231.25,169.05h24.41a1,1,0,1,0,0-2H231.25a1,1,0,0,0,0,2Z" style="fill:#fff"></path><path d="M321.62,173.29H255.25a1,1,0,0,0,0,2h66.37a1,1,0,0,0,0-2Z" style="fill:#fff"></path><path d="M321.62,179.53H264.25a1,1,0,0,0,0,2h57.37a1,1,0,0,0,0-2Z" style="fill:#fff"></path><path d="M321.62,185.77h-11.8a1,1,0,0,0,0,2h11.8a1,1,0,0,0,0-2Z" style="fill:#fff;opacity:0.5"></path><path d="M301.57,185.77H258.25a1,1,0,0,0,0,2h43.32a1,1,0,0,0,0-2Z" style="fill:#fff"></path><path d="M231.25,131.61h46.37a1,1,0,0,0,0-2H231.25a1,1,0,0,0,0,2Z" style="fill:#fff"></path><path d="M231.25,125.37h72.37a1,1,0,0,0,0-2H231.25a1,1,0,0,0,0,2Z" style="fill:#fff"></path><path d="M298.62,192H267.9a1,1,0,0,0,0,2h30.72a1,1,0,0,0,0-2Z" style="fill:#fff"></path><path d="M259.19,192H231.25a1,1,0,0,0,0,2h27.94a1,1,0,0,0,0-2Z" style="fill:#fff;opacity:0.5"></path><path d="M287.91,131.61a1,1,0,0,0,0-2h-3.6a1,1,0,0,0,0,2Z" style="fill:#fff;opacity:0.5"></path><path d="M244.08,136.85a1,1,0,0,0-1-1h-4.83a1,1,0,0,0,0,2h4.83A1,1,0,0,0,244.08,136.85Z" style="fill:#fff;opacity:0.5"></path><path d="M299.22,161.81a1,1,0,0,0-1-1h-5.28a1,1,0,0,0,0,2h5.28A1,1,0,0,0,299.22,161.81Z" style="fill:#fff;opacity:0.5"></path><path d="M316.53,156.57a1,1,0,0,0,0-2h-4.29a1,1,0,0,0,0,2Z" style="fill:#fff;opacity:0.5"></path><path d="M247.21,173.29a1,1,0,0,0,0,2h4.31a1,1,0,0,0,0-2Z" style="fill:#fff;opacity:0.5"></path></g></svg>